HIERARCHY
ROOT Hips
{
	OFFSET 0.000000 0.000000 0.000000
	CHANNELS 6 Xposition Yposition Zposition Zrotation Yrotation Xrotation 
	JOINT LeftUpLeg_virtual
	{
		OFFSET 0.000000 0.000000 0.000000
		CHANNELS 3 Zrotation Yrotation Xrotation
		JOINT LeftUpLeg
		{
			OFFSET 10.205400 -3.823500 0.155100
			CHANNELS 3 Zrotation Yrotation Xrotation
			JOINT LeftLeg
			{
				OFFSET 0.708757 -12.982077 0.567790
				CHANNELS 3 Zrotation Yrotation Xrotation
				JOINT LeftFoot
				{
					OFFSET -0.708756 -10.717838 -2.184338
					CHANNELS 3 Zrotation Yrotation Xrotation
					JOINT LeftToeBase
					{
						OFFSET 0.108149 -7.191104 7.560241
						CHANNELS 3 Zrotation Yrotation Xrotation
						End Site
						{
							OFFSET 0.000000 0.000000 0.000000
						}
					}
				}
			}
		}
	}
	JOINT RightUpLeg_virtual
	{
		OFFSET 0.000000 0.000000 0.000000
		CHANNELS 3 Zrotation Yrotation Xrotation
		JOINT RightUpLeg
		{
			OFFSET -10.205400 -3.823500 0.005500
			CHANNELS 3 Zrotation Yrotation Xrotation
			JOINT RightLeg
			{
				OFFSET -0.708756 -12.982134 0.610632
				CHANNELS 3 Zrotation Yrotation Xrotation
				JOINT RightFoot
				{
					OFFSET 0.708754 -10.717769 -1.945823
					CHANNELS 3 Zrotation Yrotation Xrotation
					JOINT RightToeBase
					{
						OFFSET -0.108140 -7.191069 7.372968
						CHANNELS 3 Zrotation Yrotation Xrotation
						End Site
						{
							OFFSET 0.000000 0.000000 0.000000
						}
					}
				}
			}
		}
	}
	JOINT Spine_virtual
	{
		OFFSET 0.000000 0.000000 0.000000
		CHANNELS 3 Zrotation Yrotation Xrotation
		JOINT Spine
		{
			OFFSET 0.000000 6.876099 0.125700
			CHANNELS 3 Zrotation Yrotation Xrotation
			JOINT Spine1
			{
				OFFSET 0.000000 8.022060 0.146608
				CHANNELS 3 Zrotation Yrotation Xrotation
				JOINT Spine2
				{
					OFFSET 0.000000 9.168068 0.167552
					CHANNELS 3 Zrotation Yrotation Xrotation
					JOINT Neck_virtual
					{
						OFFSET 0.000000 0.000000 0.000000
						CHANNELS 3 Zrotation Yrotation Xrotation
						JOINT Neck
						{
							OFFSET 0.000000 10.314075 0.188496
							CHANNELS 3 Zrotation Yrotation Xrotation
							JOINT Head
							{
								OFFSET 0.000000 7.643700 -2.377400
								CHANNELS 3 Zrotation Yrotation Xrotation
								End Site
								{
									OFFSET 0.000000 0.000000 0.000000
								}
							}
						}
					}
					JOINT LeftShoulder_virtual
					{
						OFFSET 0.000000 0.000000 0.000000
						CHANNELS 3 Zrotation Yrotation Xrotation
						JOINT LeftShoulder
						{
							OFFSET 4.392200 8.824978 0.174984
							CHANNELS 3 Zrotation Yrotation Xrotation
							JOINT LeftArm
							{
								OFFSET 8.771219 -2.981674 -0.026999
								CHANNELS 3 Zrotation Yrotation Xrotation
								JOINT LeftForeArm
								{
									OFFSET 8.512804 0.000000 -0.000000
									CHANNELS 3 Zrotation Yrotation Xrotation
									JOINT LeftHand
									{
										OFFSET 18.484802 0.000000 -0.000000
										CHANNELS 3 Zrotation Yrotation Xrotation
										End Site
										{
											OFFSET 0.000000 0.000000 0.000000
										}
									}
								}
							}
						}
					}
					JOINT RightShoulder_virtual
					{
						OFFSET 0.000000 0.000000 0.000000
						CHANNELS 3 Zrotation Yrotation Xrotation
						JOINT RightShoulder
						{
							OFFSET -4.392200 8.824993 0.141379
							CHANNELS 3 Zrotation Yrotation Xrotation
							JOINT RightArm
							{
								OFFSET -8.771282 -2.981682 -0.094208
								CHANNELS 3 Zrotation Yrotation Xrotation
								JOINT RightForeArm
								{
									OFFSET -8.494598 0.000000 0.000000
									CHANNELS 3 Zrotation Yrotation Xrotation
									JOINT RightHand
									{
										OFFSET -18.483803 0.000000 0.000001
										CHANNELS 3 Zrotation Yrotation Xrotation
										End Site
										{
											OFFSET 0.000000 0.000000 0.000000
										}
									}
								}
							}
						}
					}
				}
			}
		}
	}
}
MOTION
Frames: 4
Frame Time: 0.033333
16.955315 35.776768 -52.529701 -179.293176 -75.232191 179.334130 -1.970916 -10.502272 13.724000 -3.811077 -9.411652 -39.354041 5.425745 1.548937 45.002969 -2.729948 -4.084299 17.208170 0.000000 0.000000 0.000000 1.016397 -10.021289 12.220446 -2.263187 0.723578 -17.029613 -6.557683 -0.278524 20.836035 9.042933 5.593396 5.900668 0.000000 0.000000 0.000000 0.551220 -5.997661 5.571398 2.244878 9.858657 -13.108754 0.057705 -2.850189 5.047434 -0.019604 -0.000984 0.009546 0.124939 -1.501527 6.540105 -7.842284 6.726693 15.062278 0.000000 0.000000 0.000000 1.449632 -0.690202 3.453140 11.037948 -4.801876 6.407614 1.642291 27.569350 17.954920 -10.999764 -67.436739 14.005640 0.000000 0.000000 0.000000 -2.387441 0.105697 2.963167 29.222326 1.148573 2.411771 36.807855 -34.935472 15.659815 -5.030718 45.230971 -3.550349 0.000000 0.000000 0.000000 
15.997852 35.929001 -53.094822 -179.946320 -77.645078 179.899014 -2.093865 -11.260469 13.939404 -4.652244 -7.370681 -42.386317 5.073912 2.051357 39.418825 -1.574418 -4.648699 17.855911 0.000000 0.000000 0.000000 1.465352 -11.022587 12.552437 -2.444780 -2.182258 -13.948919 -5.834201 -0.169372 19.869920 8.929394 5.121402 4.410788 0.000000 0.000000 0.000000 0.555123 -6.472830 5.916883 2.423582 10.488005 -13.499437 -0.057839 -2.950095 4.956725 -0.014996 -0.000580 0.023875 0.090738 -1.593989 6.342645 -7.813410 6.742119 14.793512 0.000000 0.000000 0.000000 1.452977 -0.837755 3.305919 11.299047 -4.250468 6.456846 1.669140 28.014864 17.386139 -11.500895 -68.838765 15.598497 0.000000 0.000000 0.000000 -2.470060 -0.068972 2.816608 29.614942 1.648396 2.749192 35.531587 -33.104049 15.382206 -4.840925 46.293062 -3.401735 0.000000 0.000000 0.000000 
14.997290 36.004829 -53.638435 -179.411188 -79.691027 179.468903 -2.049036 -11.553211 14.264527 -5.870159 -5.422368 -45.457665 4.642124 2.611704 32.324212 -0.677585 -5.413867 18.308214 0.000000 0.000000 0.000000 2.262588 -11.337702 13.095372 -3.072736 -4.114741 -11.363929 -4.768757 -0.443169 18.992792 8.837988 4.518138 3.617399 0.000000 0.000000 0.000000 0.667770 -6.678285 6.228685 2.615746 11.107645 -14.163826 -0.129902 -3.047601 4.803867 -0.003700 0.031151 0.027475 -0.039301 -1.534896 6.268249 -7.847494 6.859719 14.582479 0.000000 0.000000 0.000000 1.333082 -0.874099 3.266130 11.401528 -3.519302 6.578539 1.706164 28.635240 16.835081 -12.139177 -70.372805 17.369125 0.000000 0.000000 0.000000 -2.677649 -0.112193 2.786317 30.111589 2.218073 3.099994 34.091373 -30.991119 15.488166 -4.638183 47.316938 -3.171745 0.000000 0.000000 0.000000 
13.992378 35.970802 -54.098083 178.129708 -81.812279 -178.166195 -2.536370 -11.718743 14.849888 -7.605525 -3.460752 -48.231620 4.274815 2.875702 24.992400 0.144252 -6.128053 18.351805 0.000000 0.000000 0.000000 2.448656 -11.852019 13.741938 -3.793589 -5.489642 -8.974285 -3.780855 -0.707444 18.792874 8.922315 4.062105 2.454970 0.000000 0.000000 0.000000 0.424079 -6.796033 6.669371 2.520642 11.594585 -14.902544 -0.299793 -3.143160 4.732593 0.010983 0.039840 -0.011695 -0.086084 -1.861377 6.195540 -7.961642 7.117685 14.396734 0.000000 0.000000 0.000000 1.351387 -0.974108 3.189109 11.507928 -2.698888 6.536403 1.725128 29.271004 16.442842 -13.611537 -72.708853 20.133547 0.000000 0.000000 0.000000 -2.693446 -0.235302 2.678653 30.618461 2.745736 3.461749 32.665981 -28.586894 15.809292 -4.459744 48.142698 -2.925633 0.000000 0.000000 0.000000 
